<?xml version="1.0" encoding="UTF-8" standalone="no"?>
<!DOCTYPE svg PUBLIC "-//W3C//DTD SVG 1.1//EN" "http://www.w3.org/Graphics/SVG/1.1/DTD/svg11.dtd">
<svg width="100%" height="100%" viewBox="0 0 640 512" version="1.1" xmlns="http://www.w3.org/2000/svg" xmlns:xlink="http://www.w3.org/1999/xlink" xml:space="preserve" xmlns:serif="http://www.serif.com/" style="fill-rule:evenodd;clip-rule:evenodd;stroke-linecap:round;stroke-linejoin:round;stroke-miterlimit:1.5;">
    <g transform="matrix(1,0,0,1,-0.000469561,5.14984e-07)">
        <path d="M175.899,54.743C148.79,63.539 122.34,74.886 96.933,88.784M320,352C284.65,352 256,380.65 256,416C256,451.35 284.65,480 320,480C355.35,480 384,451.35 384,416C384,380.65 355.35,352 320,352ZM424.825,292.308C443.673,300.921 450.455,312.27 466.74,326.35C473.13,331.87 482.79,331.48 488.79,325.55L523.23,291.56C529.79,285.1 529.56,274.5 522.67,268.41C463.439,216.029 399.539,190.596 325,192.064" style="fill-rule:nonzero;"/>
    </g>
    <g transform="matrix(1,0,0,1,-0.000469561,5.14984e-07)">
        <path d="M80.933,99.538C48.333,117.371 33.449,128.649 5.09,154.88C-1.57,161.04 -1.7,171.47 4.74,177.86L38.98,211.83C45.12,217.93 55,218.06 61.38,212.21C90.236,185.774 106.2,175.319 140.042,159.338" style="fill-rule:nonzero;"/>
    </g>
    <g transform="matrix(1,0,0,1,-0.000469561,5.14984e-07)">
        <path d="M262,118.103C379.232,93.587 484.835,126.281 578.63,212.21C585.01,218.06 594.89,217.92 601.03,211.83L635.27,177.86C641.7,171.47 641.57,161.04 634.91,154.88C508.221,37.702 348.224,0.345 192.895,50.743" style="fill-rule:nonzero;"/>
    </g>
    <g transform="matrix(1,0,0,1,-0.000469561,5.14984e-07)">
        <path d="M199.797,218.662C163.819,231.377 147.307,241.899 117.33,268.41C110.43,274.51 110.21,285.1 116.76,291.56L151.2,325.55C157.2,331.47 166.86,331.87 173.25,326.35C205.063,298.849 225.363,290.888 264.629,284.25" style="fill-rule:nonzero;"/>
    </g>
    <g transform="matrix(1,0,0,1,138.997,75)">
        <path d="M-15,-15L341,341" style="fill:none;stroke:black;stroke-width:80px;"/>
    </g>
</svg>
